<?xml version="1.0" standalone="no"?>
<!DOCTYPE svg PUBLIC "-//W3C//DTD SVG 20010904//EN"
 "http://www.w3.org/TR/2001/REC-SVG-20010904/DTD/svg10.dtd">
<svg version="1.0" xmlns="http://www.w3.org/2000/svg"
 width="413.000000pt" height="413.000000pt" viewBox="0 0 413.000000 413.000000"
 preserveAspectRatio="xMidYMid meet">
<metadata>
Created by potrace 1.11, written by Peter Selinger 2001-2013
</metadata>
<g transform="translate(0.000000,413.000000) scale(0.100000,-0.100000)"
fill="#000000" stroke="none">
<path d="M1817 3624 c-530 -80 -980 -404 -1214 -876 -40 -80 -99 -226 -108
-268 -2 -8 -10 -42 -18 -75 -8 -33 -18 -79 -22 -103 -4 -23 -9 -54 -11 -70
-12 -74 -10 -319 3 -414 14 -102 58 -293 72 -313 4 -5 13 -28 20 -50 65 -194
232 -445 396 -594 21 -20 49 -46 62 -58 90 -87 331 -228 481 -283 99 -36 257
-76 337 -86 33 -3 69 -8 80 -10 29 -6 263 -5 310 1 217 29 356 68 530 149 309
144 596 425 746 729 37 74 107 255 114 294 2 15 9 44 15 63 39 135 54 412 30
580 -30 212 -109 440 -211 607 -21 36 -39 69 -39 73 0 5 -3 10 -8 12 -4 2 -29
32 -56 68 -109 147 -262 287 -430 394 -60 38 -227 124 -256 131 -8 3 -46 16
-85 30 -38 14 -83 28 -100 31 -16 2 -47 9 -69 15 -21 6 -57 13 -79 15 -23 3
-45 8 -51 11 -19 12 -352 10 -439 -3z"/>
</g>
</svg>
